<?xml version="1.0" encoding="UTF-8" standalone="no"?>
<!-- Created with Inkscape (http://www.inkscape.org/) -->

<svg
   xmlns:dc="http://purl.org/dc/elements/1.1/"
   xmlns:cc="http://creativecommons.org/ns#"
   xmlns:rdf="http://www.w3.org/1999/02/22-rdf-syntax-ns#"
   xmlns:svg="http://www.w3.org/2000/svg"
   xmlns="http://www.w3.org/2000/svg"
   xmlns:sodipodi="http://sodipodi.sourceforge.net/DTD/sodipodi-0.dtd"
   xmlns:inkscape="http://www.inkscape.org/namespaces/inkscape"
   width="370"
   height="370"
   id="svg2"
   version="1.1"
   inkscape:version="0.48.1 r9760"
   sodipodi:docname="4x4_template.svg"
   inkscape:export-filename="./4x4_template.png"
   inkscape:export-xdpi="90"
   inkscape:export-ydpi="90">
  <defs
     id="defs4" />
  <sodipodi:namedview
     id="base"
     pagecolor="#ffffff"
     bordercolor="#666666"
     borderopacity="1.0"
     inkscape:pageopacity="0.0"
     inkscape:pageshadow="2"
     inkscape:zoom="0.7"
     inkscape:cx="302.63031"
     inkscape:cy="278.21182"
     inkscape:document-units="px"
     inkscape:current-layer="layer1"
     showgrid="false"
     showguides="true"
     inkscape:guide-bbox="true"
     inkscape:window-width="1280"
     inkscape:window-height="725"
     inkscape:window-x="0"
     inkscape:window-y="25"
     inkscape:window-maximized="1" />
  <metadata
     id="metadata7">
    <rdf:RDF>
      <cc:Work
         rdf:about="">
        <dc:format>image/svg+xml</dc:format>
        <dc:type
           rdf:resource="http://purl.org/dc/dcmitype/StillImage" />
        <dc:title></dc:title>
      </cc:Work>
    </rdf:RDF>
  </metadata>
  <g
     inkscape:label="Capa 1"
     inkscape:groupmode="layer"
     id="layer1"
     transform="translate(0,-682.36218)">
    <rect
       style="fill:#000000;fill-opacity:1;stroke:none"
       id="rect3755"
       width="100"
       height="10"
       x="0"
       y="1042.3622" />
    <rect
       style="fill:#000000;fill-opacity:1;stroke:none"
       id="rect3755-6"
       width="100"
       height="10"
       x="90"
       y="1042.3622" />
    <rect
       style="fill:#000000;fill-opacity:1;stroke:none"
       id="rect3755-8"
       width="100"
       height="10"
       x="180"
       y="1042.3622" />
    <rect
       style="fill:#000000;fill-opacity:1;stroke:none"
       id="rect3755-9"
       width="100"
       height="10"
       x="270"
       y="1042.3622" />
    <rect
       style="fill:#000000;fill-opacity:1;stroke:none"
       id="rect3755-4"
       width="100"
       height="10"
       x="0"
       y="952.36218" />
    <rect
       style="fill:#000000;fill-opacity:1;stroke:none"
       id="rect3755-6-4"
       width="100"
       height="10"
       x="90"
       y="952.36218" />
    <rect
       style="fill:#000000;fill-opacity:1;stroke:none"
       id="rect3755-8-9"
       width="100"
       height="10"
       x="180"
       y="952.36218" />
    <rect
       style="fill:#000000;fill-opacity:1;stroke:none"
       id="rect3755-9-9"
       width="100"
       height="10"
       x="269.99997"
       y="952.36218" />
    <rect
       style="fill:#000000;fill-opacity:1;stroke:none"
       id="rect3755-4-9"
       width="100"
       height="10"
       x="0"
       y="862.36218" />
    <rect
       style="fill:#000000;fill-opacity:1;stroke:none"
       id="rect3755-6-4-9"
       width="100"
       height="10"
       x="90"
       y="862.36218" />
    <rect
       style="fill:#000000;fill-opacity:1;stroke:none"
       id="rect3755-8-9-4"
       width="100"
       height="10"
       x="180"
       y="862.36218" />
    <rect
       style="fill:#000000;fill-opacity:1;stroke:none"
       id="rect3755-9-9-5"
       width="100"
       height="10"
       x="269.99994"
       y="862.36218" />
    <rect
       style="fill:#000000;fill-opacity:1;stroke:none"
       id="rect3755-4-99"
       width="100"
       height="10"
       x="0"
       y="772.36218" />
    <rect
       style="fill:#000000;fill-opacity:1;stroke:none"
       id="rect3755-6-4-7"
       width="100"
       height="10"
       x="90"
       y="772.36218" />
    <rect
       style="fill:#000000;fill-opacity:1;stroke:none"
       id="rect3755-8-9-8"
       width="100"
       height="10"
       x="180"
       y="772.36218" />
    <rect
       style="fill:#000000;fill-opacity:1;stroke:none"
       id="rect3755-9-9-2"
       width="100"
       height="10"
       x="269.99997"
       y="772.36218" />
    <rect
       style="fill:#000000;fill-opacity:1;stroke:none"
       id="rect3755-4-90"
       width="100"
       height="10"
       x="0"
       y="682.36218" />
    <rect
       style="fill:#000000;fill-opacity:1;stroke:none"
       id="rect3755-6-4-2"
       width="100"
       height="10"
       x="89.999992"
       y="682.36218" />
    <rect
       style="fill:#000000;fill-opacity:1;stroke:none"
       id="rect3755-8-9-0"
       width="100"
       height="10"
       x="180"
       y="682.36218" />
    <rect
       style="fill:#000000;fill-opacity:1;stroke:none"
       id="rect3755-9-9-1"
       width="100"
       height="10"
       x="269.99997"
       y="682.36218" />
    <rect
       style="fill:#000000;fill-opacity:1;stroke:none"
       id="rect3755-8-9-1-9"
       width="100"
       height="10"
       x="682.36218"
       y="-9.9999971"
       transform="matrix(0,1,-1,0,0,0)" />
    <rect
       style="fill:#000000;fill-opacity:1;stroke:none"
       id="rect3755-9-9-0-8"
       width="100"
       height="10"
       x="772.36218"
       y="-9.9999971"
       transform="matrix(0,1,-1,0,0,0)" />
    <rect
       style="fill:#000000;fill-opacity:1;stroke:none"
       id="rect3755-0-3-3-1"
       width="100"
       height="10"
       x="862.36218"
       y="-9.9999971"
       transform="matrix(0,1,-1,0,0,0)" />
    <rect
       style="fill:#000000;fill-opacity:1;stroke:none"
       id="rect3755-81-6-7-3"
       width="100"
       height="10"
       x="952.36218"
       y="-9.9999971"
       transform="matrix(0,1,-1,0,0,0)" />
    <rect
       style="fill:#000000;fill-opacity:1;stroke:none"
       id="rect3755-8-9-1-9-4"
       width="100"
       height="10"
       x="682.36218"
       y="-100"
       transform="matrix(0,1,-1,0,0,0)" />
    <rect
       style="fill:#000000;fill-opacity:1;stroke:none"
       id="rect3755-9-9-0-8-9"
       width="100"
       height="10"
       x="772.36218"
       y="-100"
       transform="matrix(0,1,-1,0,0,0)" />
    <rect
       style="fill:#000000;fill-opacity:1;stroke:none"
       id="rect3755-0-3-3-1-9"
       width="100"
       height="10"
       x="862.36218"
       y="-100"
       transform="matrix(0,1,-1,0,0,0)" />
    <rect
       style="fill:#000000;fill-opacity:1;stroke:none"
       id="rect3755-81-6-7-3-0"
       width="100"
       height="10"
       x="952.36218"
       y="-100"
       transform="matrix(0,1,-1,0,0,0)" />
    <rect
       style="fill:#000000;fill-opacity:1;stroke:none"
       id="rect3755-8-9-1-9-9"
       width="100"
       height="10"
       x="682.36218"
       y="-190"
       transform="matrix(0,1,-1,0,0,0)" />
    <rect
       style="fill:#000000;fill-opacity:1;stroke:none"
       id="rect3755-9-9-0-8-6"
       width="100"
       height="10"
       x="772.36218"
       y="-190"
       transform="matrix(0,1,-1,0,0,0)" />
    <rect
       style="fill:#000000;fill-opacity:1;stroke:none"
       id="rect3755-0-3-3-1-7"
       width="100"
       height="10"
       x="862.36218"
       y="-190"
       transform="matrix(0,1,-1,0,0,0)" />
    <rect
       style="fill:#000000;fill-opacity:1;stroke:none"
       id="rect3755-81-6-7-3-7"
       width="100"
       height="10"
       x="952.36218"
       y="-190"
       transform="matrix(0,1,-1,0,0,0)" />
    <rect
       style="fill:#000000;fill-opacity:1;stroke:none"
       id="rect3755-8-9-1-9-1"
       width="100"
       height="10"
       x="682.36218"
       y="-280"
       transform="matrix(0,1,-1,0,0,0)" />
    <rect
       style="fill:#000000;fill-opacity:1;stroke:none"
       id="rect3755-9-9-0-8-2"
       width="100"
       height="10"
       x="772.36218"
       y="-280"
       transform="matrix(0,1,-1,0,0,0)" />
    <rect
       style="fill:#000000;fill-opacity:1;stroke:none"
       id="rect3755-0-3-3-1-2"
       width="100"
       height="10"
       x="862.36218"
       y="-280"
       transform="matrix(0,1,-1,0,0,0)" />
    <rect
       style="fill:#000000;fill-opacity:1;stroke:none"
       id="rect3755-81-6-7-3-1"
       width="100"
       height="10"
       x="952.36218"
       y="-280"
       transform="matrix(0,1,-1,0,0,0)" />
    <rect
       style="fill:#000000;fill-opacity:1;stroke:none"
       id="rect3755-8-9-1-9-90"
       width="100"
       height="10"
       x="682.36218"
       y="-370"
       transform="matrix(0,1,-1,0,0,0)" />
    <rect
       style="fill:#000000;fill-opacity:1;stroke:none"
       id="rect3755-9-9-0-8-4"
       width="100"
       height="10"
       x="772.36218"
       y="-370"
       transform="matrix(0,1,-1,0,0,0)" />
    <rect
       style="fill:#000000;fill-opacity:1;stroke:none"
       id="rect3755-0-3-3-1-0"
       width="100"
       height="10"
       x="862.36218"
       y="-370"
       transform="matrix(0,1,-1,0,0,0)" />
    <rect
       style="fill:#000000;fill-opacity:1;stroke:none"
       id="rect3755-81-6-7-3-13"
       width="100"
       height="10"
       x="952.36218"
       y="-370"
       transform="matrix(0,1,-1,0,0,0)" />
  </g>
</svg>
