<?xml version="1.0" encoding="UTF-8" standalone="no"?>
<!-- Created with Inkscape (http://www.inkscape.org/) -->

<svg
   xmlns:dc="http://purl.org/dc/elements/1.1/"
   xmlns:cc="http://creativecommons.org/ns#"
   xmlns:rdf="http://www.w3.org/1999/02/22-rdf-syntax-ns#"
   xmlns:svg="http://www.w3.org/2000/svg"
   xmlns="http://www.w3.org/2000/svg"
   xmlns:sodipodi="http://sodipodi.sourceforge.net/DTD/sodipodi-0.dtd"
   xmlns:inkscape="http://www.inkscape.org/namespaces/inkscape"
   width="550"
   height="550"
   id="svg2"
   version="1.1"
   inkscape:version="0.48.1 r9760"
   sodipodi:docname="6x6_002.svg"
   inkscape:export-filename="./6x6_002.png"
   inkscape:export-xdpi="90"
   inkscape:export-ydpi="90">
  <defs
     id="defs4" />
  <sodipodi:namedview
     id="base"
     pagecolor="#ffffff"
     bordercolor="#666666"
     borderopacity="1.0"
     inkscape:pageopacity="0.0"
     inkscape:pageshadow="2"
     inkscape:zoom="0.7"
     inkscape:cx="302.63031"
     inkscape:cy="278.21182"
     inkscape:document-units="px"
     inkscape:current-layer="layer1"
     showgrid="false"
     showguides="true"
     inkscape:guide-bbox="true"
     inkscape:window-width="1280"
     inkscape:window-height="725"
     inkscape:window-x="0"
     inkscape:window-y="25"
     inkscape:window-maximized="1" />
  <metadata
     id="metadata7">
    <rdf:RDF>
      <cc:Work
         rdf:about="">
        <dc:format>image/svg+xml</dc:format>
        <dc:type
           rdf:resource="http://purl.org/dc/dcmitype/StillImage" />
        <dc:title></dc:title>
      </cc:Work>
    </rdf:RDF>
  </metadata>
  <g
     inkscape:label="Capa 1"
     inkscape:groupmode="layer"
     id="layer1"
     transform="translate(0,-502.36218)">
    <rect
       style="fill:#000000;fill-opacity:1;stroke:none"
       id="rect3755"
       width="100"
       height="10"
       x="-550"
       y="-512.36224"
       transform="scale(-1,-1)" />
    <rect
       style="fill:#000000;fill-opacity:1;stroke:none"
       id="rect3755-6"
       width="100"
       height="10"
       x="-460.00003"
       y="-512.36224"
       transform="scale(-1,-1)" />
    <rect
       style="fill:#000000;fill-opacity:1;stroke:none"
       id="rect3755-8"
       width="100"
       height="10"
       x="-370.00003"
       y="-512.36224"
       transform="scale(-1,-1)" />
    <rect
       style="fill:#000000;fill-opacity:1;stroke:none"
       id="rect3755-9"
       width="100"
       height="10"
       x="-280.00003"
       y="-512.36224"
       transform="scale(-1,-1)" />
    <rect
       style="fill:#000000;fill-opacity:1;stroke:none"
       id="rect3755-0"
       width="100"
       height="10"
       x="-190.00002"
       y="-512.36224"
       transform="scale(-1,-1)" />
    <rect
       style="fill:#000000;fill-opacity:1;stroke:none"
       id="rect3755-81"
       width="100"
       height="10"
       x="-100.00002"
       y="-512.36224"
       transform="scale(-1,-1)" />
    <rect
       style="fill:#000000;fill-opacity:1;stroke:none"
       id="rect3755-8-9"
       width="100"
       height="10"
       x="-370.00003"
       y="-602.36224"
       transform="scale(-1,-1)" />
    <rect
       style="fill:#000000;fill-opacity:1;stroke:none"
       id="rect3755-0-3"
       width="100"
       height="10"
       x="-190.00005"
       y="-602.36224"
       transform="scale(-1,-1)" />
    <rect
       style="fill:#000000;fill-opacity:1;stroke:none"
       id="rect3755-81-6-3"
       width="100"
       height="10"
       x="-100.00008"
       y="-692.36224"
       transform="scale(-1,-1)" />
    <rect
       style="fill:#000000;fill-opacity:1;stroke:none"
       id="rect3755-9-9-2"
       width="100"
       height="10"
       x="-280.00006"
       y="-782.36224"
       transform="scale(-1,-1)" />
    <rect
       style="fill:#000000;fill-opacity:1;stroke:none"
       id="rect3755-4-90"
       width="100"
       height="10"
       x="-550"
       y="-872.36224"
       transform="scale(-1,-1)" />
    <rect
       style="fill:#000000;fill-opacity:1;stroke:none"
       id="rect3755-6-4-2"
       width="100"
       height="10"
       x="-460.00003"
       y="-872.36224"
       transform="scale(-1,-1)" />
    <rect
       style="fill:#000000;fill-opacity:1;stroke:none"
       id="rect3755-9-9-1"
       width="100"
       height="10"
       x="-100"
       y="-872.36224"
       transform="scale(-1,-1)" />
    <rect
       style="fill:#000000;fill-opacity:1;stroke:none"
       id="rect3755-0-3-96"
       width="100"
       height="10"
       x="-190.00005"
       y="-872.36224"
       transform="scale(-1,-1)" />
    <rect
       style="fill:#000000;fill-opacity:1;stroke:none"
       id="rect3755-6-4-74"
       width="100"
       height="10"
       x="-460.00003"
       y="-962.36224"
       transform="scale(-1,-1)" />
    <rect
       style="fill:#000000;fill-opacity:1;stroke:none"
       id="rect3755-8-9-06"
       width="100"
       height="10"
       x="-370.00003"
       y="-962.36224"
       transform="scale(-1,-1)" />
    <rect
       style="fill:#000000;fill-opacity:1;stroke:none"
       id="rect3755-0-3-7"
       width="100"
       height="10"
       x="-190.00002"
       y="-962.36224"
       transform="scale(-1,-1)" />
    <rect
       style="fill:#000000;fill-opacity:1;stroke:none"
       id="rect3755-81-6-4"
       width="100"
       height="10"
       x="-100.00002"
       y="-962.36224"
       transform="scale(-1,-1)" />
    <rect
       style="fill:#000000;fill-opacity:1;stroke:none"
       id="rect3755-6-4-5"
       width="100"
       height="10"
       x="-460.00003"
       y="-1052.3622"
       transform="scale(-1,-1)" />
    <rect
       style="fill:#000000;fill-opacity:1;stroke:none"
       id="rect3755-8-9-1"
       width="100"
       height="10"
       x="-370.00003"
       y="-1052.3622"
       transform="scale(-1,-1)" />
    <rect
       style="fill:#000000;fill-opacity:1;stroke:none"
       id="rect3755-9-9-0"
       width="100"
       height="10"
       x="-280.00006"
       y="-1052.3622"
       transform="scale(-1,-1)" />
    <rect
       style="fill:#000000;fill-opacity:1;stroke:none"
       id="rect3755-0-3-3"
       width="100"
       height="10"
       x="-190.00005"
       y="-1052.3622"
       transform="scale(-1,-1)" />
    <rect
       style="fill:#000000;fill-opacity:1;stroke:none"
       id="rect3755-4-94-1"
       width="100"
       height="10"
       x="-1052.3622"
       y="540"
       transform="matrix(0,-1,1,0,0,0)" />
    <rect
       style="fill:#000000;fill-opacity:1;stroke:none"
       id="rect3755-6-4-5-6"
       width="100"
       height="10"
       x="-962.36224"
       y="540"
       transform="matrix(0,-1,1,0,0,0)" />
    <rect
       style="fill:#000000;fill-opacity:1;stroke:none"
       id="rect3755-8-9-1-9"
       width="100"
       height="10"
       x="-872.36224"
       y="540"
       transform="matrix(0,-1,1,0,0,0)" />
    <rect
       style="fill:#000000;fill-opacity:1;stroke:none"
       id="rect3755-9-9-0-8"
       width="100"
       height="10"
       x="-782.36224"
       y="540"
       transform="matrix(0,-1,1,0,0,0)" />
    <rect
       style="fill:#000000;fill-opacity:1;stroke:none"
       id="rect3755-0-3-3-1"
       width="100"
       height="10"
       x="-692.36224"
       y="540"
       transform="matrix(0,-1,1,0,0,0)" />
    <rect
       style="fill:#000000;fill-opacity:1;stroke:none"
       id="rect3755-81-6-7-3"
       width="100"
       height="10"
       x="-602.36224"
       y="540"
       transform="matrix(0,-1,1,0,0,0)" />
    <rect
       style="fill:#000000;fill-opacity:1;stroke:none"
       id="rect3755-4-94-1-0"
       width="100"
       height="10"
       x="-1052.3622"
       y="450.00003"
       transform="matrix(0,-1,1,0,0,0)" />
    <rect
       style="fill:#000000;fill-opacity:1;stroke:none"
       id="rect3755-8-9-1-9-4"
       width="100"
       height="10"
       x="-872.36224"
       y="450.00003"
       transform="matrix(0,-1,1,0,0,0)" />
    <rect
       style="fill:#000000;fill-opacity:1;stroke:none"
       id="rect3755-9-9-0-8-9"
       width="100"
       height="10"
       x="-782.36224"
       y="450.00003"
       transform="matrix(0,-1,1,0,0,0)" />
    <rect
       style="fill:#000000;fill-opacity:1;stroke:none"
       id="rect3755-0-3-3-1-9"
       width="100"
       height="10"
       x="-692.36224"
       y="450.00003"
       transform="matrix(0,-1,1,0,0,0)" />
    <rect
       style="fill:#000000;fill-opacity:1;stroke:none"
       id="rect3755-8-9-1-9-9"
       width="100"
       height="10"
       x="-872.36224"
       y="360.00003"
       transform="matrix(0,-1,1,0,0,0)" />
    <rect
       style="fill:#000000;fill-opacity:1;stroke:none"
       id="rect3755-6-4-5-6-7"
       width="100"
       height="10"
       x="-962.36224"
       y="270.00003"
       transform="matrix(0,-1,1,0,0,0)" />
    <rect
       style="fill:#000000;fill-opacity:1;stroke:none"
       id="rect3755-8-9-1-9-1"
       width="100"
       height="10"
       x="-872.36224"
       y="270.00003"
       transform="matrix(0,-1,1,0,0,0)" />
    <rect
       style="fill:#000000;fill-opacity:1;stroke:none"
       id="rect3755-9-9-0-8-2"
       width="100"
       height="10"
       x="-782.36224"
       y="270.00003"
       transform="matrix(0,-1,1,0,0,0)" />
    <rect
       style="fill:#000000;fill-opacity:1;stroke:none"
       id="rect3755-0-3-3-1-2"
       width="100"
       height="10"
       x="-692.36224"
       y="270.00003"
       transform="matrix(0,-1,1,0,0,0)" />
    <rect
       style="fill:#000000;fill-opacity:1;stroke:none"
       id="rect3755-9-9-0-8-4"
       width="100"
       height="10"
       x="-782.36224"
       y="180.00002"
       transform="matrix(0,-1,1,0,0,0)" />
    <rect
       style="fill:#000000;fill-opacity:1;stroke:none"
       id="rect3755-0-3-3-1-0"
       width="100"
       height="10"
       x="-692.36224"
       y="180.00002"
       transform="matrix(0,-1,1,0,0,0)" />
    <rect
       style="fill:#000000;fill-opacity:1;stroke:none"
       id="rect3755-9-9-0-8-3"
       width="100"
       height="10"
       x="-782.36224"
       y="90.000023"
       transform="matrix(0,-1,1,0,0,0)" />
    <rect
       style="fill:#000000;fill-opacity:1;stroke:none"
       id="rect3755-4-94-1-1"
       width="100"
       height="10"
       x="-1052.3622"
       y="1.9999999e-05"
       transform="matrix(0,-1,1,0,0,0)" />
    <rect
       style="fill:#000000;fill-opacity:1;stroke:none"
       id="rect3755-6-4-5-6-75"
       width="100"
       height="10"
       x="-962.36224"
       y="1.9999999e-05"
       transform="matrix(0,-1,1,0,0,0)" />
    <rect
       style="fill:#000000;fill-opacity:1;stroke:none"
       id="rect3755-8-9-1-9-6"
       width="100"
       height="10"
       x="-872.36224"
       y="1.9999999e-05"
       transform="matrix(0,-1,1,0,0,0)" />
    <rect
       style="fill:#000000;fill-opacity:1;stroke:none"
       id="rect3755-9-9-0-8-5"
       width="100"
       height="10"
       x="-782.36224"
       y="1.9999999e-05"
       transform="matrix(0,-1,1,0,0,0)" />
    <rect
       style="fill:#000000;fill-opacity:1;stroke:none"
       id="rect3755-0-3-3-1-4"
       width="100"
       height="10"
       x="-692.36224"
       y="1.9999999e-05"
       transform="matrix(0,-1,1,0,0,0)" />
    <rect
       style="fill:#000000;fill-opacity:1;stroke:none"
       id="rect3755-81-6-7-3-22"
       width="100"
       height="10"
       x="-602.36224"
       y="1.9999999e-05"
       transform="matrix(0,-1,1,0,0,0)" />
    <rect
       style="fill:#000000;fill-opacity:1;stroke:none"
       id="rect3755-8-9-1-9-9-4"
       width="100"
       height="10"
       x="-782.36224"
       y="360.00003"
       transform="matrix(0,-1,1,0,0,0)" />
  </g>
</svg>
